# xmcd CD database file
#
# Track frame offsets:
#	150
#	794
#	37666
#	46925
#	80659
#	120360
#	138537
#	155436
#	168436
#	182201
#
# Disc length: 2621 seconds
#
# Revision: 0
# Processed by: cddbd v1.5.2PL0 Copyright (c) Steve Scherf et al.
# Submitted via: CDex 1.51
#
DISCID=6c0a3b0a
DTITLE=Captain Beefheart and The Magic Band - Spotlight Kid Outtakes - CD 3
DYEAR=1971
DGENRE=Blues
TTITLE0=Intro
TTITLE1=Sun Zoom Spark #1
TTITLE2=Scratch My Back
TTITLE3=Blues Meddley
TTITLE4=Sun Zoom Spark #2
TTITLE5=Sun Zoom Spark #3
TTITLE6=Funeral Hill #3
TTITLE7=Harry Irene
TTITLE8=Little Scratch #2
TTITLE9=Dirty Blue Gene #2
EXTD=YEAR: 1971
EXTT0=
EXTT1=
EXTT2=
EXTT3=
EXTT4=
EXTT5=
EXTT6=
EXTT7=
EXTT8=
EXTT9=
PLAYORDER=
